<?xml version="1.0" encoding="utf-8" ?>
<svg baseProfile="full" height="200mm" version="1.1" viewBox="0,0,200,200" width="200mm" xmlns="http://www.w3.org/2000/svg" xmlns:ev="http://www.w3.org/2001/xml-events" xmlns:xlink="http://www.w3.org/1999/xlink"><defs /><rect fill="#1a1a1a" height="200" width="200" x="0" y="0" /><text alignment-baseline="middle" fill="#e1ed5e" style="dominant-baseline: central; font-size:9.0px; font-family:Arial;" text-anchor="middle" x="100.0" y="100.0">2023</text><line stroke="#e1ed5e" stroke-width="0.3" x1="100.0" x2="100.0" y1="15.0" y2="10.0" /><path d="M 100.0 14.0 a86.0,86.0 0 0,1 42.46469731375804,11.215312516191453" fill="none" id="id13" stroke="none" /><text fill="#e1ed5e" style="font-size:6.75px; font-family:Arial;" text-anchor="middle"><textPath startOffset="22.20632615414155" xlink:href="#id13">January</textPath></text><path d="M 100.72285384407766 79.0124445844662 l 0.8567526917778122 -24.875214738655743 a45.88996451321505,45.88996451321505 0 0,0 0.7892181612036124,0.03398539418592942 l -1.284811685370756 24.856781617945618" fill="#f9ff18" stroke="none" /><path d="M 101.08401301168833 79.027996857942 l 0.8524199732239619 -16.491457357105812 a37.5134728501303,37.5134728501303 0 0,0 0.6445849849596125,0.03888312657800298 l -1.1361670070231862 16.474340961147504" fill="#ff8f0d" stroke="none" /><path d="M 101.44485096284872 79.0497635885617 l 0.5299588235304686 -7.684365326788063 a28.702618180215115,28.702618180215115 0 0,0 0.4926050087207787,0.03823562943314902 l -0.6621540216135886 7.674104435166449" fill="#ff0601" stroke="none" /><path d="M 101.80526077348638 79.07773832637324 l 0.6808848222582913 -7.891187040738261 a28.920507373463973,28.920507373463973 0 0,0 0.49560780550052397,0.047063932944424035 l -0.8166177548490594 7.878297563278658" fill="#ff0a01" stroke="none" /><path d="M 102.88285421437855 79.19881850522331 l 7.040715455844328 -50.80215271366667 a72.2877216736411,72.2877216736411 0 0,0 1.231063409744468,0.18142674569702663 l -7.9141478460174515 50.67343148380868" fill="#3dffab" stroke="none" /><path d="M 103.2404852339499 79.25152402106235 l 3.751115067743313 -24.01798349885843 a45.309142222688294,45.309142222688294 0 0,0 0.7695451297968021,0.12698154013358318 l -4.163989403678991 23.94985569578522" fill="#fffd17" stroke="none" /><path d="M 103.59715602781102 79.31037775812273 l 4.8049493083294195 -27.636439818597616 a49.05103106309255,49.05103106309255 0 0,0 0.8306088552842321,0.15178845918500197 l -5.2799532847165525 27.549635878061878" fill="#cfff1d" stroke="none" /><path d="M 103.95276090670814 79.375362276772 l 4.448712585708634 -23.21240459024317 a44.6348634548919,44.6348634548919 0 0,0 0.7533378532029489,0.15111248631794302 l -4.847616848378708 23.13238814784802" fill="#fff417" stroke="none" /><path d="M 104.307194497241 79.44645832069477 l 3.4542344133582707 -16.483293482689717 a37.841339003146686,37.841339003146686 0 0,0 0.6363782950825779,0.13908764690577094 l -3.7374554325943765 16.421392337688076" fill="#ff940d" stroke="none" /><path d="M 105.36241919743992 79.69619591428918 l 5.319640101886224 -20.141828987698915 a41.832470947616955,41.832470947616955 0 0,0 0.6946224246867536,0.18986654818099746 l -5.665560415796688 20.047275898691623" fill="#ffcd13" stroke="none" /><path d="M 105.71112130821622 79.79150937346287 l 7.980559279444935 -28.238772859048005 a50.34480565615729,50.34480565615729 0 0,0 0.8319114309285484,0.24285775920151628 l -8.465460928096912 28.097216770927787" fill="#bfff1e" stroke="none" /><path d="M 106.40334571778207 80.00007090966166 l 2.436670662265486 -7.6105902460467565 a28.991148090829462,28.991148090829462 0 0,0 0.4739599591664618,0.1562571467547591 l -2.567313443674365 7.567519375032761" fill="#ff0b01" stroke="none" /><path d="M 106.74666289553966 80.11325718540242 l 3.076074245337944 -9.06716377308339 a30.574742380385345,30.574742380385345 0 0,0 0.49693856169308664,0.17337210653027796 l -3.2316948110943042 9.012870813380905" fill="#ff2403" stroke="none" /><path d="M 107.08798089147638 80.2323363322302 l 7.797019205067387 -21.74509999628538 a44.10071172783731,44.10071172783731 0 0,0 0.7123686125757634,0.26237137193768023 l -8.170170143415726 21.607665356541375" fill="#ffed16" stroke="none" /><path d="M 108.09893153111575 80.62456947434976 l 16.13941285730872 -38.61102805230052 a62.84844243976351,62.84844243976351 0 0,0 0.9945503914435181,0.4258145741491868 l -16.801647006542556 38.32749395018854" fill="#30ff33" stroke="none" /><path d="M 109.73455568895987 81.39251694778311 l 5.918367134781976 -11.312885731615758 a33.76747638018817,33.76747638018817 0 0,0 0.5127108147648215,0.2738723609474089 l -6.112222996075109 11.209334644166596" fill="#ff5608" stroke="none" /><line stroke="#e1ed5e" stroke-width="0.3" x1="143.23703022742887" x2="145.7803849466894" y1="26.81831364943548" y2="22.513508569990506" /><path d="M 143.74570117128098 25.957352633546492 a86.0,86.0 0 0,1 28.547481713284135,27.462654790039103" fill="none" id="id14" stroke="none" /><text fill="#e1ed5e" style="font-size:6.75px; font-family:Arial;" text-anchor="middle"><textPath startOffset="19.985693538727396" xlink:href="#id14">February</textPath></text><path d="M 111.2981086023043 82.29822771554956 l 8.772694795128647 -13.744977239170677 a37.305967412999365,37.305967412999365 0 0,0 0.5383303933883772,0.35014506249389354 l -9.007992214301305 13.591933252517254" fill="#ff8c0c" stroke="none" /><path d="M 112.19680574252982 82.90503203632743 l 17.54443608313783 -24.590173781002893 a51.20734817979279,51.20734817979279 0 0,0 0.7131347053467949,0.5181226916310154 l -17.965116104838412 24.2845318545552" fill="#b4ff20" stroke="none" /><path d="M 112.48926042617603 83.11751280151076 l 18.404066131727436 -24.877887101932284 a51.9454183496925,51.9454183496925 0 0,0 0.7142590163382658,0.5379650829636506 l -18.829571301824085 24.557405429462786" fill="#aaff21" stroke="none" /><path d="M 112.77801427241765 83.33499621200491 l 21.215080563275553 -27.668571220238224 a55.86587840103368,55.86587840103368 0 0,0 0.7580931724626924,0.5917037457817812 l -21.688206290897675 27.29928908523322" fill="#7bff26" stroke="none" /><path d="M 113.06298171725822 83.55741782278167 l 20.79256781335294 -26.17193473483618 a54.42605337214379,54.42605337214379 0 0,0 0.7285227920217732,0.5890814324507304 l -21.239994003939202 25.81014720512132" fill="#8cff24" stroke="none" /><path d="M 114.16331599549186 84.49514656593476 l 14.13610656824182 -15.47506675263619 a41.959656483521755,41.959656483521755 0 0,0 0.5290755350244287,0.4917180490703896 l -14.400389987061097 15.22944411749116" fill="#ffcf13" stroke="none" /><path d="M 114.42810811169701 84.74124197986012 l 18.010211583005827 -19.04708907842272 a47.213723955707,47.213723955707 0 0,0 0.5857126772342597,0.5634551314398119 l -18.335407503852505 18.734250860220605" fill="#e7ff1a" stroke="none" /><path d="M 114.68862486808459 84.99185889309783 l 23.719709783396098 -24.23567588123707 a54.91154106832824,54.91154106832824 0 0,0 0.6698271894927386,0.6669507386706769 l -24.13337277305616 23.823789291916277" fill="#86ff25" stroke="none" /><path d="M 114.94478906791727 85.2469230424477 l 23.390308374244437 -23.09025694092309 a53.86740773836745,53.86740773836745 0 0,0 0.645731026162989,0.665482583820636 l -23.784303664110535 22.68421016155234" fill="#93ff23" stroke="none" /><path d="M 115.19652480421416 85.50635884689758 l 11.571763139628942 -11.036535301016317 a36.99096037173047,36.99096037173047 0 0,0 0.435494009313686,0.4645546451941545 l -11.760024470913091 10.835711238944107" fill="#ff870c" stroke="none" /><path d="M 115.4437574822437 85.77008943001954 l 23.17418380630465 -21.35274161583737 a52.511622770036865,52.511622770036865 0 0,0 0.6067752003200586,0.6700163312944886 l -23.538302647240744 20.95067249727333" fill="#a3ff21" stroke="none" /><path d="M 115.9244219780498 86.31012108654704 l 19.99028101373984 -17.185209416154304 a47.36176696819403,47.36176696819403 0 0,0 0.5261427409607667,0.6227870513342183 l -20.28313436818772 16.83856341519098" fill="#e5ff1a" stroke="none" /><path d="M 116.15771136456269 86.58626213691792 l 23.49090250606129 -19.501574280786265 a51.53086798599576,51.53086798599576 0 0,0 0.560708620924359,0.6873624703196445 l -23.823109619062055 19.09432764085852" fill="#b0ff20" stroke="none" /><path d="M 116.38621287248628 86.86637796730983 l 10.461294387994268 -8.384773683449202 a34.406830721499496,34.406830721499496 0 0,0 0.36642606145512374,0.4653238868988631 l -10.604074530043356 8.203457402597301" fill="#ff6008" stroke="none" /><path d="M 116.60985879189232 87.15038557335679 l 28.657374236080365 -22.16973750513742 a57.23178658517214,57.23178658517214 0 0,0 0.5960937481017128,0.7843894991781036 l -29.034743924406193 21.673163230078284" fill="#6bff28" stroke="none" /><path d="M 117.45458315368197 88.32363383020206 l 36.95841224726218 -24.72358982473589 a65.4654936963525,65.4654936963525 0 0,0 0.6185035341576616,0.9420233156105322 l -37.378512416777774 24.083748445147684" fill="#33ff56" stroke="none" /><path d="M 117.65298651832404 88.62581576622439 l 10.805357498827162 -6.9621152645131685 a33.85405771084865,33.85405771084865 0 0,0 0.3114128430872749,0.4925803318080391 l -10.923597938160393 6.775087284990923" fill="#ff5808" stroke="none" /><line stroke="#e1ed5e" stroke-width="0.3" x1="172.23445277983987" x2="176.4835382374775" y1="55.19839476539836" y2="52.563006222186495" /><path d="M 173.08426987136738 54.67131705675599 a86.0,86.0 0 0,1 12.851231095245387,41.99856678651699" fill="none" id="id15" stroke="none" /><text fill="#e1ed5e" style="font-size:6.75px; font-family:Arial;" text-anchor="middle"><textPath startOffset="22.20632615414155" xlink:href="#id15">March</textPath></text><path d="M 117.84615892207809 88.93136811851018 l 14.036970647920384 -8.706078518716698 a37.51763748677875,37.51763748677875 0 0,0 0.3356653033042984,0.5517455013833981 l -14.184751749510907 8.463165244126218" fill="#ff8f0d" stroke="none" /><path d="M 118.03404312379186 89.2402003453031 l 17.74648042911377 -10.588228756165607 a41.66514349850517,41.66514349850517 0 0,0 0.36216994559322185,0.6190658361315647 l -17.926110049177318 10.281183507680147" fill="#ffcb12" stroke="none" /><path d="M 118.21658344932153 89.55222093294921 l 10.840959734417188 -6.217628706013085 a33.49741231972014,33.49741231972014 0 0,0 0.28256241090072093,0.5026469998312955 l -10.946379786610342 6.030098196246996" fill="#ff5207" stroke="none" /><path d="M 118.73160827565052 90.50648371742162 l 6.9712884044467005 -3.5331744612765394 a28.815509183142822,28.815509183142822 0 0,0 0.2204249058057625,0.44436315959434575 l -7.031073323205871 3.412651713183244" fill="#ff0801" stroke="none" /><path d="M 118.89224826269711 90.83032412892265 l 7.331200037237875 -3.558323347901223 a29.149120138653963,29.149120138653963 0 0,0 0.21520629686764517,0.45327934565154837 l -7.391364527947276 3.4316015866091343" fill="#ff0e01" stroke="none" /><path d="M 119.04729006885535 91.15688171328212 l 8.095227793960898 -3.7583854018675367 a29.925142792420075,29.925142792420075 0 0,0 0.2128927141775503,0.469080875691584 l -8.158722825101796 3.6184825173338897" fill="#ff1a02" stroke="none" /><path d="M 119.196687751892 91.48605970444005 l 7.660717267528914 -3.3976116234155023 a29.380355230930476,29.380355230930476 0 0,0 0.20105857118128098,0.4640709029737676 l -7.718066548552875 3.2652415758551316" fill="#ff1101" stroke="none" /><path d="M 119.34039704204932 91.81776055985345 l 15.57611673024499 -6.58970528668281 a37.91270611580398,37.91270611580398 0 0,0 0.24910148740180857,0.6032190102962232 l -15.687239904532998 6.320611705933285" fill="#ff950d" stroke="none" /><path d="M 119.61058180528143 92.48833698450437 l 16.858829021701144 -6.4576280145228235 a39.05328434265917,39.05328434265917 0 0,0 0.235055044993021,0.6298306585653936 l -16.967488655195787 6.166474218928097" fill="#ffa50f" stroke="none" /><path d="M 119.7369772167798 92.82701384747503 l 15.986378816774371 -5.809910637392432 a38.00939062071002,38.00939062071002 0 0,0 0.21818642569633875,0.6168424067436167 l -16.084018323280517 5.5338706042222" fill="#ff960d" stroke="none" /><path d="M 119.85752413597 93.16781622104841 l 15.878262725196167 -5.463078291442684 a37.79179715184728,37.79179715184728 0 0,0 0.20634808260281529,0.6169545025027207 l -15.969948101570752 5.188950686017648" fill="#ff930d" stroke="none" /><path d="M 120.08093135843002 93.85539295169968 l 7.558457636887954 -2.312828585532906 a28.90439484810115,28.90439484810115 0 0,0 0.14148577799712816,0.4770197070584218 l -7.597149311996784 2.182379491727954" fill="#ff0a01" stroke="none" /><path d="M 120.18372546131832 94.20196356495316 l 7.790909942366973 -2.2380397412055357 a29.10599158729442,29.10599158729442 0 0,0 0.1341830972111543,0.4827279939351297 l -7.82827981014449 2.1036004438514544" fill="#ff0d01" stroke="none" /><path d="M 120.28053869075195 94.5502522615342 l 26.839527458196052 -7.212266710326289 a48.79167186910749,48.79167186910749 0 0,0 0.21097441809026307,0.812970494783253 l -26.959698208156617 6.749199789994186" fill="#d3ff1c" stroke="none" /><path d="M 120.45610955862082 95.25157060432595 l 23.982684864543465 -5.567045164264524 a45.620340476381784,45.620340476381784 0 0,0 0.17097985058901832,0.766469144410995 l -24.07495910213452 5.153397850303565" fill="#fcff18" stroke="none" /><path d="M 120.6074358757038 95.95851677861258 l 10.967600285783952 -2.1509406993297753 a32.176529064104,32.176529064104 0 0,0 0.10191421608534526,0.5444298175066267 l -11.003000225779157 1.9618328043605857" fill="#ff3e05" stroke="none" /><path d="M 120.67395015179393 96.31383870115 l 8.674002672903965 -1.5465729927865544 a29.81080078038097,29.81080078038097 0 0,0 0.0857247031294614,0.5059520504672899 l -8.69933923755365 1.3970351540034265" fill="#ff1802" stroke="none" /><path d="M 120.73433829027371 96.67025291283417 l 7.373043319019763 -1.1840440322404642 a28.467511503467954,28.467511503467954 0 0,0 0.07353308226247962,0.48449113711085995 l -7.392332294721542 1.0569537827375222" fill="#ff0200" stroke="none" /><path d="M 120.83666639777658 97.38593545837742 l 8.558372069894874 -1.0736907975026406 a29.625459084326963,29.625459084326963 0 0,0 0.05912345392051253,0.5065336471061177 l -8.575585876818975 0.9262134120716702" fill="#ff1502" stroke="none" /><path d="M 120.87857604477298 97.74499172005257 l 15.418849063434486 -1.6653258455338535 a36.50852077448967,36.50852077448967 0 0,0 0.062104252340706566,0.6253813457318765 l -15.445230441457422 1.399668969097542" fill="#ff800b" stroke="none" /><path d="M 120.96714384426684 98.82574320788733 l 7.449852945524729 -0.4172261365925146 a28.46152709296156,28.46152709296156 0 0,0 0.02318447774881689,0.48938768199128574 l -7.455931031507042 0.2889273479782291" fill="#ff0200" stroke="none" /><path d="M 120.98425023603335 99.18683210126433 l 17.139981010235637 -0.6641972996742725 a38.15284545153173,38.15284545153173 0 0,0 0.019781897079182383,0.656464858205655 l -17.148874601770466 0.36906229404361846" fill="#ff980e" stroke="none" /><line stroke="#e1ed5e" stroke-width="0.3" x1="184.98032266829074" x2="189.97916517819016" y1="98.17113171792111" y2="98.06355123074" /><path d="M 185.9800911702706 98.14961562048488 a86.0,86.0 0 0,1 -9.607161424134198,41.387399972396054" fill="none" id="id16" stroke="none" /><text fill="#e1ed5e" style="font-size:6.75px; font-family:Arial;" text-anchor="middle"><textPath startOffset="21.466115282336823" xlink:href="#id16">April</textPath></text><path d="M 120.99513854157772 99.54816195383933 l 11.252005570710468 -0.24215530668637883 a32.25461099087195,32.25461099087195 0 0,0 0.007168192376916817,0.5551843992173667 l -11.2545067702051 0.04843464940854933" fill="#ff3f05" stroke="none" /><path d="M 120.99824983174949 100.27111621757518 l 34.47473668637809 0.44511615430820756 a55.47761009678498,55.47761009678498 0 0,0 -0.020547684462780526,0.9547701564096783 l -34.4619669392303 -1.0384761265080007" fill="#7fff26" stroke="none" /><path d="M 120.9904718944345 100.63252640178507 l 7.457344361748761 0.2247194450764016 a28.460729438781538,28.460729438781538 0 0,0 -0.018970929030567345,0.48955538285077077 l -7.45237129986699 -0.3530520749411786" fill="#ff0200" stroke="none" /><path d="M 120.95626037817324 101.35467743843564 l 15.386913162229927 0.9946576217267963 a36.41902851824536,36.41902851824536 0 0,0 -0.045824574454936644,0.6252399106436989 l -15.367512029110653 -1.2593706688672655" fill="#ff7f0b" stroke="none" /><path d="M 120.81339534386255 102.79330883721812 l 7.364850981487929 0.9884164977172304 a28.4308813173461,28.4308813173461 0 0,0 -0.06927109633506631,0.48448188642856604 l -7.346745834136261 -1.1150438561262057" fill="#ff0200" stroke="none" /><path d="M 120.76222939487914 103.15116336523771 l 7.964361227797797 1.2087817185348115 a29.055569688725484,29.055569688725484 0 0,0 -0.07930544193290807,0.49383506261917454 l -7.9423740315036 -1.3456960108471911" fill="#ff0c01" stroke="none" /><path d="M 120.70491114924044 103.5080841355445 l 18.974517868527155 3.2148993364131226 a40.24494494890349,40.24494494890349 0 0,0 -0.12160404451768683,0.6820200611946966 l -18.91636738167028 -3.5410381483410376" fill="#ffb710" stroke="none" /><path d="M 120.64145759157962 103.86396538481128 l 17.022802205164364 3.186573340638327 a38.318488518673206,38.318488518673206 0 0,0 -0.12694380069120667,0.6472837048335179 l -16.965428471497493 -3.47912077253979" fill="#ff9b0e" stroke="none" /><path d="M 120.5718875245553 104.21870165774334 l 33.53457248010792 6.876975014795275 a55.23244567333351,55.23244567333351 0 0,0 -0.19901029026060735,0.9297098221605049 l -33.41122815112287 -7.453198656371948" fill="#82ff25" stroke="none" /><path d="M 120.41448212921028 104.9243191809786 l 22.879025941230818 5.518808930416312 a44.53523061348572,44.53523061348572 0 0,0 -0.18617568395829914,0.7436793115317274 l -22.780638942977458 -5.911816081345435" fill="#fff316" stroke="none" /><path d="M 120.32669344350535 105.2749913415812 l 52.39102780471721 13.596024302453628 a75.12644151676297,75.12644151676297 0 0,0 -0.33560742839450025,1.2489200900837556 l -52.14923229998094 -14.495835325712932" fill="#41ffcc" stroke="none" /><path d="M 120.23288151984713 105.62410040840565 l 28.488062883103417 7.918779435266449 a50.568171985702016,50.568171985702016 0 0,0 -0.24033694778014936,0.8366444444681326 l -28.34753329843717 -8.407981355239164" fill="#bcff1f" stroke="none" /><path d="M 120.13307415673323 105.97154293290107 l 46.68381020343576 13.846587695997226 a69.69400503073612,69.69400503073612 0 0,0 -0.35103618328927544,1.1472065578069865 l -46.43854724764036 -14.648121226356269" fill="#39ff8c" stroke="none" /><path d="M 120.02730092923936 106.31721596034902 l 14.760215359227749 4.655817994394299 a36.4770991677287,36.4770991677287 0 0,0 -0.19403688749924305,0.5971841342611514 l -14.67788622071226 -4.9092010286332455" fill="#ff7f0b" stroke="none" /><path d="M 119.9155931802556 106.66101706037122 l 37.97905344630721 12.702565304125981 a61.047018190909604,61.047018190909604 0 0,0 -0.3418899563250644,0.993692248221759 l -37.75477265903891 -13.354430255437041" fill="#40ff2d" stroke="none" /><path d="M 119.67450827220406 107.3425965602758 l 56.627241536849404 21.13348822617346 a81.4422766669034,81.4422766669034 0 0,0 -0.5014739169504228,1.3091901555334058 l -56.25507334030547 -22.10510194854001" fill="#49ecff" stroke="none" /><path d="M 119.54520255179757 107.68017299344265 l 53.98395681345265 21.212679996489577 a79.00211535685737,79.00211535685737 0 0,0 -0.5082371072784447,1.2614028200432974 l -53.610817091916815 -22.13878218437569" fill="#46fff8" stroke="none" /><path d="M 119.41010516605496 108.01547362559984 l 28.44953235187329 11.748338006219946 a51.77985277659198,51.77985277659198 0 0,0 -0.34729245036141326,0.820896764123005 l -28.24308892031957 -12.236309296009114" fill="#acff20" stroke="none" /><path d="M 119.26925614724726 108.34839909993367 l 19.44373593459126 8.42399241233184 a42.19015137409688,42.19015137409688 0 0,0 -0.29444489621004927,0.6638955097712206 l -19.295849953649938 -8.757436258595748" fill="#ffd213" stroke="none" /><path d="M 119.12269723197855 108.67885076344098 l 24.495452770461817 11.117279973571964 a47.90020669884731,47.90020669884731 0 0,0 -0.3472203484849195,0.7478817404641983 l -24.300457805137068 -11.537281781314993" fill="#deff1b" stroke="none" /><path d="M 118.81262510543309 109.33194174019688 l 15.414552252962125 7.646338709759322 a38.20682762230341,38.20682762230341 0 0,0 -0.29732431396588294,0.5866490786196618 l -15.280649269209972 -7.910542000081678" fill="#ff990e" stroke="none" /><path d="M 118.64920377521936 109.65438752849418 l 55.94761132565807 28.96316258548255 a84.0,84.0 0 0,0 -0.6757899671004277,1.2783399396554627 l -55.44076885033275 -29.921917540224147" fill="#4dd2ff" stroke="none" /><line stroke="#e1ed5e" stroke-width="0.3" x1="174.80103733775053" x2="179.2010983576182" y1="140.37084112569926" y2="142.7455964860345" /><path d="M 175.68104954172406 140.8457921977663 a86.0,86.0 0 0,1 -30.038265399797805,32.042727171017184" fill="none" id="id17" stroke="none" /><text fill="#e1ed5e" style="font-size:6.75px; font-family:Arial;" text-anchor="middle"><textPath startOffset="22.206326154141568" xlink:href="#id17">May</textPath></text><path d="M 118.48025628344425 109.97397251340804 l 10.467298690274877 5.6493020348403995 a32.89449264795611,32.89449264795611 0 0,0 -0.27321788175844886,0.49596981688997893 l -10.368504399064918 -5.8286423701281835" fill="#ff4906" stroke="none" /><path d="M 117.94076556474637 110.91462005526583 l 29.143861791620232 17.730245526632885 a55.11343264117153,55.11343264117153 0 0,0 -0.500050368924813,0.8062404142105132 l -28.834346783027456 -18.22928227220867" fill="#84ff25" stroke="none" /><path d="M 117.75023020441432 111.22182372390056 l 6.769612688703723 4.27979803060927 a29.009015366314728,29.009015366314728 0 0,0 -0.27046781556880184,0.4197720560652241 l -6.694940009757871 -4.3956916865959474" fill="#ff0b01" stroke="none" /><path d="M 117.55443506779139 111.5257021239791 l 19.654014978903497 12.904221714471019 a44.51168311387316,44.51168311387316 0 0,0 -0.4260338132776453,0.6368627458232194 l -19.428978060215133 -13.240621374500044" fill="#fff216" stroke="none" /><path d="M 117.35343817320211 111.8261652097733 l 22.895988861297184 15.60334869737609 a48.70723364951024,48.70723364951024 0 0,0 -0.4781173790072341,0.6887637441390709 l -22.624010575127812 -15.995153703702181" fill="#d4ff1c" stroke="none" /><path d="M 117.14729908036423 112.12312394758627 l 19.064883630046307 13.47885437876496 a44.34843256390371,44.34843256390371 0 0,0 -0.44606119685544376,0.6195399888174322 l -18.83004264081526 -13.805027973033523" fill="#fff016" stroke="none" /><path d="M 116.93607887273984 112.41649034213515 l 5.992493275363599 4.393327135398779 a28.430430604878104,28.430430604878104 0 0,0 -0.2927504905386633,0.39218712267797057 l -5.915981518129843 -4.495827137586065" fill="#ff0200" stroke="none" /><path d="M 116.71984013943494 112.70617746262583 l 19.710135985879926 14.978641156884992 a45.75579026184799,45.75579026184799 0 0,0 -0.4819461370819365,0.6229803491714704 l -19.44938303157992 -15.315699500169716" fill="#fbff18" stroke="none" /><path d="M 116.498646956653 112.99209946851258 l 34.95253794301186 27.523884281277592 a65.4886964810933,65.4886964810933 0 0,0 -0.7050391065357863,0.8796446901218288 l -34.47358092442122 -28.121456804977672" fill="#33ff56" stroke="none" /><path d="M 116.27256486870786 113.27417163493432 l 34.53176830428238 28.168922540926246 a65.56378820676429,65.56378820676429 0 0,0 -0.7209019504321142,0.8683728395565914 l -34.04177035395672 -28.759156637596607" fill="#34ff57" stroke="none" /><path d="M 115.80600337817218 113.82643327865902 l 11.072760751879269 9.68598981560621 a35.711370751102194,35.711370751102194 0 0,0 -0.4087100917597422,0.4591901207980051 l -10.904391810471187 -9.87515410614508" fill="#ff740a" stroke="none" /><path d="M 111.1453310114006 117.79835938074945 l 8.529476606869707 13.621012226866545 a37.07121480385305,37.07121480385305 0 0,0 -0.5437478687316218,0.3340143518843601 l -8.293749538205777 -13.765815045579284" fill="#ff880c" stroke="none" /><line stroke="#e1ed5e" stroke-width="0.3" x1="143.8653032363475" x2="146.44561519142675" y1="172.8068346515853" y2="177.08958963109032" /><path d="M 144.38136562736335 173.6633856474863 a86.0,86.0 0 0,1 -40.68145358897372,12.25698825130547" fill="none" id="id18" stroke="none" /><text fill="#e1ed5e" style="font-size:6.75px; font-family:Arial;" text-anchor="middle"><textPath startOffset="21.466115282336833" xlink:href="#id18">June</textPath></text><path d="M 110.8373102113329 117.98757091392108 l 6.264093247895628 10.397028350273505 a33.138247926893015,33.138247926893015 0 0,0 -0.49112797393696267,0.29016706383241825 l -6.084197402930283 -10.503313986399672" fill="#ff4d07" stroke="none" /><path d="M 110.5260780823613 118.17145234162733 l 4.350046596057938 7.509602701559348 a29.678538939426538,29.678538939426538 0 0,0 -0.44426120531361624,0.2522631068823087 l -4.220136623823122 -7.583368974236285" fill="#ff1602" stroke="none" /><path d="M 110.21172684928248 118.3499491758327 l 3.588627726168026 6.448579888404893 a28.379866633900775,28.379866633900775 0 0,0 -0.4289105843719136,0.23387624870511925 l -3.4770943299274637 -6.509396788869783" fill="#ff0100" stroke="none" /><path d="M 109.57404056367764 118.69057910512821 l 9.420112264983711 18.39007807590012 a41.66236885554507,41.66236885554507 0 0,0 -0.6410967472547072,0.32145921802366745 l -9.102161610046242 -18.54950513483309" fill="#ffcb12" stroke="none" /><path d="M 108.92500713936063 119.00905698771935 l 3.4205478164229453 7.285303793746967 a29.048341365251584,29.048341365251584 0 0,0 -0.4544433242075371,0.20861264110616598 l -3.294636496447989 -7.343103505187207" fill="#ff0c01" stroke="none" /><path d="M 108.59647513512805 119.15986991738527 l 8.164519756238361 18.197125450665194 a40.94479274189766,40.94479274189766 0 0,0 -0.6455225884412179,0.2829781326124425 l -7.8500764931393885 -18.33496813657209" fill="#ffc111" stroke="none" /><path d="M 108.2653958097858 119.30500536409082 l 12.956864787165575 30.26259721547601 a53.91967702361352,53.91967702361352 0 0,0 -0.8563691039073379,0.357962354886858 l -12.434024223760776 -30.481144613382842" fill="#92ff23" stroke="none" /><path d="M 107.93186726928326 119.44442032107085 l 10.216309249585004 25.044570771911705 a48.04816999045315,48.04816999045315 0 0,0 -0.768493696883376,0.30579950189227073 l -9.783694476659761 -25.216717118210045" fill="#dcff1b" stroke="none" /><path d="M 107.59598834532513 119.57807347666477 l 20.13563033192775 51.89803251607911 a76.66730986767776,76.66730986767776 0 0,0 -1.234452407641023,0.46676427267617937 l -19.239307703526453 -52.23694503886192" fill="#43ffde" stroke="none" /><path d="M 107.2578585660854 119.70592522655815 l 4.416429455463887 11.991116639336864 a33.778565153931424,33.778565153931424 0 0,0 -0.5473421424703293,0.1962574187891948 l -4.209367752363823 -12.06536159916602" fill="#ff5708" stroke="none" /><path d="M 106.2309692047433 120.05430185196036 l 2.1703310140088443 6.985185104184386 a28.314584584929488,28.314584584929488 0 0,0 -0.46668506253202574,0.14060838106495638 l -2.049770977036573 -7.021508854355067" fill="#ff0000" stroke="none" /><path d="M 105.88484417918355 120.15858648285463 l 5.1451306638154914 17.624691205757888 a39.36034067347482,39.36034067347482 0 0,0 -0.6520112253850696,0.18426488505791802 l -4.840988270325816 -17.710644884154327" fill="#ffaa0f" stroke="none" /><path d="M 105.53697534728816 120.25689768951611 l 1.9370806894848924 7.086765405674234 a28.346735704558615,28.346735704558615 0 0,0 -0.47178357351618083,0.12460232973979646 l -1.8148066731572141 -7.119059084717615" fill="#ff0100" stroke="none" /><path d="M 104.13013068566511 120.58985236759428 l 1.4425095067112068 7.191311859724362 a28.33456201424219,28.33456201424219 0 0,0 -0.4790327210467799,0.09180776109610052 l -1.3185091710927226 -7.215076819168931" fill="#ff0000" stroke="none" /><path d="M 103.7750983002368 120.6578951692458 l 1.3246218471763995 7.248526285036411 a28.368565419597005,28.368565419597005 0 0,0 -0.48111875009771,0.08364866171910834 l -1.1996541256066395 -7.270253525276526" fill="#ff0100" stroke="none" /><path d="M 102.70371172650421 120.8252237178851 l 6.020312778925183 46.37120120600412 a67.76037283046199,67.76037283046199 0 0,0 -1.157968552984149,0.1402138654628963 l -5.2212168028896535 -46.46796060019237" fill="#37ff74" stroke="none" /><path d="M 102.34483914955558 120.86867818915974 l 2.4566332910671154 21.863627443175567 a43.001210241728955,43.001210241728955 0 0,0 -0.7362777861635736,0.07631820299409275 l -2.079922908297939 -21.90267501462542" fill="#ffde14" stroke="none" /><path d="M 101.98527174616119 120.90594882070398 l 0.7726015206789629 8.135897708384066 a29.172499289143104,29.172499289143104 0 0,0 -0.5003162564126535,0.043169391824299144 l -0.6324409465247677 -8.147991352487029" fill="#ff0e01" stroke="none" /><line stroke="#e1ed5e" stroke-width="0.3" x1="102.19456741930631" x2="102.32365962044197" y1="184.97166512339345" y2="189.96999836594603" /><path d="M 102.22038585953345 185.97133177190398 a86.0,86.0 0 0,1 -42.740103519485714,-10.115201625700543" fill="none" id="id19" stroke="none" /><text fill="#e1ed5e" style="font-size:6.75px; font-family:Arial;" text-anchor="middle"><textPath startOffset="22.20632615414155" xlink:href="#id19">July</textPath></text><path d="M 100.54218724476979 120.99299961872073 l 0.44535649856572557 17.243800725254417 a38.24955088873619,38.24955088873619 0 0,0 -0.6583299778424279,0.011333747593671416 l -0.14846683083062973 -17.248911950127248" fill="#ff9a0e" stroke="none" /><line stroke="#e1ed5e" stroke-width="0.3" x1="58.666819895761336" x2="56.23545636021788" y1="174.27360380694188" y2="178.64263932499728" /><path d="M 58.180547188652646 175.14741091055294 a86.0,86.0 0 0,1 -31.652253787137756,-30.449443065178592" fill="none" id="id20" stroke="none" /><text fill="#e1ed5e" style="font-size:6.75px; font-family:Arial;" text-anchor="middle"><textPath startOffset="22.20632615414155" xlink:href="#id20">August</textPath></text><line stroke="#e1ed5e" stroke-width="0.3" x1="26.63291911575756" x2="22.317208475507996" y1="142.92168965132927" y2="145.44649492493687" /><path d="M 25.769776987707644 143.4266507060508 a86.0,86.0 0 0,1 -11.730757126820373,-40.83630448921669" fill="none" id="id21" stroke="none" /><text fill="#e1ed5e" style="font-size:6.75px; font-family:Arial;" text-anchor="middle"><textPath startOffset="21.46611528233685" xlink:href="#id21">September</textPath></text><line stroke="#e1ed5e" stroke-width="0.3" x1="15.007084014347285" x2="10.007500721073583" y1="101.09737516637583" y2="101.16192664675087" /><path d="M 14.007167355692545 101.11028546245083 a86.0,86.0 0 0,1 10.666146001902534,-42.60595125391555" fill="none" id="id22" stroke="none" /><text fill="#e1ed5e" style="font-size:6.75px; font-family:Arial;" text-anchor="middle"><textPath startOffset="22.20632615414155" xlink:href="#id22">October</textPath></text><line stroke="#e1ed5e" stroke-width="0.3" x1="26.266209847984243" x2="21.928928074336255" y1="57.711370442889674" y2="55.22380399835377" /><path d="M 25.398753493254645 57.213857153982495 a86.0,86.0 0 0,1 29.58750427330803,-30.492523968695096" fill="none" id="id23" stroke="none" /><text fill="#e1ed5e" style="font-size:6.75px; font-family:Arial;" text-anchor="middle"><textPath startOffset="21.46611528233685" xlink:href="#id23">November</textPath></text><line stroke="#e1ed5e" stroke-width="0.3" x1="56.762969772571076" x2="54.21961505331055" y1="26.818313649435495" y2="22.513508569990535" /><path d="M 56.25429882871897 25.957352633546506 a86.0,86.0 0 0,1 42.265352541879196,-11.944610805530505" fill="none" id="id24" stroke="none" /><text fill="#e1ed5e" style="font-size:6.75px; font-family:Arial;" text-anchor="middle"><textPath startOffset="22.20632615414155" xlink:href="#id24">December</textPath></text></svg>