<?xml version="1.0" encoding="utf-8" ?>
<svg baseProfile="full" height="200mm" version="1.1" viewBox="0,0,200,200" width="200mm" xmlns="http://www.w3.org/2000/svg" xmlns:ev="http://www.w3.org/2001/xml-events" xmlns:xlink="http://www.w3.org/1999/xlink"><defs /><rect fill="#1a1a1a" height="200" width="200" x="0" y="0" /><text alignment-baseline="middle" fill="#e1ed5e" style="dominant-baseline: central; font-size:9.0px; font-family:Arial;" text-anchor="middle" x="100.0" y="100.0">2024</text><line stroke="#e1ed5e" stroke-width="0.3" x1="100.0" x2="100.0" y1="15.0" y2="10.0" /><path d="M 100.0 14.0 a86.0,86.0 0 0,1 42.35913384403234,11.155469271406648" fill="none" id="id25" stroke="none" /><text fill="#e1ed5e" style="font-size:6.75px; font-family:Arial;" text-anchor="middle"><textPath startOffset="22.145653131862478" xlink:href="#id25">January</textPath></text><line stroke="#e1ed5e" stroke-width="0.3" x1="143.13028292997686" x2="145.6673583964461" y1="26.7553504044142" y2="22.446841604673864" /><path d="M 143.63769802327073 25.89364864446614 a86.0,86.0 0 0,1 29.32050498858742,28.57503671076993" fill="none" id="id26" stroke="none" /><text fill="#e1ed5e" style="font-size:6.75px; font-family:Arial;" text-anchor="middle"><textPath startOffset="20.669276256404974" xlink:href="#id26">February</textPath></text><line stroke="#e1ed5e" stroke-width="0.3" x1="172.87174338648825" x2="177.1583165268699" y1="56.24261187166439" y2="53.66864786411523" /><path d="M 173.72905801456457 55.72781907015455 a86.0,86.0 0 0,1 12.242430191666344,42.057860355516425" fill="none" id="id27" stroke="none" /><text fill="#e1ed5e" style="font-size:6.75px; font-family:Arial;" text-anchor="middle"><textPath startOffset="22.145653131862474" xlink:href="#id27">March</textPath></text><path d="M 120.82617615685814 97.30363454192243 l 6.999343020767877 -0.9062050857675066 a28.057762420189764,28.057762420189764 0 0,0 0.05774275981060057,0.47819288483650285 l -7.013867866838141 0.7859185240075907" fill="#ff1802" stroke="none" /><path d="M 120.86939407059847 97.66154086499901 l 31.228644658465267 -3.499234770700441 a52.424081389679,52.424081389679 0 0,0 0.09253501302199121,0.8951923099909728 l -31.284112063968927 2.9626379384265373" fill="#98ff23" stroke="none" /><path d="M 120.9064616781168 98.02013634271609 l 56.742781293980414 -5.373600383787226 a77.9966561305234,77.9966561305234 0 0,0 0.11479019441354879,1.3340360598648595 l -56.8266651110917 4.398743276546704" fill="#45ffef" stroke="none" /><path d="M 120.93736805541906 98.37931529534042 l 11.900088508415042 -0.9211421119710285 a32.93568637735418,32.93568637735418 0 0,0 0.038795162727877947,0.5640731516955213 l -11.914147632307985 0.716725536121173" fill="#ff6209" stroke="none" /><path d="M 120.96210409425399 98.7389718711861 l 5.912795957043005 -0.3556991220080931 a26.923485282755536,26.923485282755536 0 0,0 0.02379319491130004,0.4615816248761172 l -5.9180307414108775 0.25414570375524526" fill="#ff0601" stroke="none" /><line stroke="#e1ed5e" stroke-width="0.3" x1="184.99686870605535" x2="189.99668451229388" y1="99.2704041080226" y2="99.22748670261217" /><path d="M 185.99683186730306 99.26182062694052 a86.0,86.0 0 0,1 -10.086455211305974,41.156179273409016" fill="none" id="id28" stroke="none" /><text fill="#e1ed5e" style="font-size:6.75px; font-family:Arial;" text-anchor="middle"><textPath startOffset="21.40746469413373" xlink:href="#id28">April</textPath></text><path d="M 120.77682067341334 103.0534771498775 l 6.732131673737781 0.9893915223530525 a27.804446520992546,27.804446520992546 0 0,0 -0.0734547240431431,0.47163202122059567 l -6.71415545755637 -1.1048117255050987" fill="#ff1402" stroke="none" /><path d="M 120.7213421655516 103.40968896794604 l 6.353126527889402 1.0454045525160194 a27.438562522628267,27.438562522628267 0 0,0 -0.08046708955746673,0.46411278927055266 l -6.334244620839701 -1.1543103747071601" fill="#ff0e01" stroke="none" /><path d="M 120.51834098615036 104.47187691870673 l 55.242197637999595 12.039779859529194 a77.53898388671071,77.53898388671071 0 0,0 -0.2946080342864198,1.2980973578963468 l -55.02737874215551 -12.986311551364558" fill="#44ffea" stroke="none" /><path d="M 119.83427380445688 106.89939002012753 l 33.98116331026069 11.820412550846914 a56.978349222703734,56.978349222703734 0 0,0 -0.32928013204019735,0.9210551335346768 l -33.77324300817655 -12.402002640762513" fill="#64ff29" stroke="none" /><path d="M 119.71291397450082 107.23885506374661 l 5.722419577908502 2.101351732778239 a27.096045023659244,27.096045023659244 0 0,0 -0.16408502461866073,0.43525502227464163 l -5.685503869475401 -2.19927503524704" fill="#ff0901" stroke="none" /><path d="M 119.4528033332814 107.91128576633889 l 9.293123121150012 3.779432270689958 a31.03226024550727,31.03226024550727 0 0,0 -0.2049224991271293,0.49173939848869763 l -9.226874777486398 -3.9384041786199333" fill="#ff4506" stroke="none" /><path d="M 119.0197475246899 108.90220220490707 l 15.849422102524228 7.418329828218606 a38.499594235987914,38.499594235987914 0 0,0 -0.2853016868212731,0.5961707962433177 l -15.719741157743044 -7.689313126527027" fill="#ffb210" stroke="none" /><path d="M 118.8641267826498 109.22738970284198 l 5.691830746948324 2.784159639608443 a27.33628299168613,27.33628299168613 0 0,0 -0.209812593574696,0.41976573503388537 l -5.643198240161896 -2.881457230806074" fill="#ff0d01" stroke="none" /><path d="M 118.70294669586154 109.54985784667822 l 10.464260876537768 5.3431261643709025 a32.74945755771831,32.74945755771831 0 0,0 -0.25995572953900037,0.4984993878387757 l -10.370997078023818 -5.521971795314181" fill="#ff5f08" stroke="none" /><path d="M 118.5362547648365 109.86951160357373 l 15.413040685636803 8.20657602213249 a38.46166410122859,38.46166410122859 0 0,0 -0.3153025874552037,0.5801212476470249 l -15.269892748566262 -8.469952103254117" fill="#ffb110" stroke="none" /><line stroke="#e1ed5e" stroke-width="0.3" x1="174.33088141563837" x2="178.70328620479359" y1="141.23008692659167" y2="143.65538615756765" /><path d="M 175.20536237346943 141.71514677278685 a86.0,86.0 0 0,1 -30.301960400862466,31.631185727798858" fill="none" id="id29" stroke="none" /><text fill="#e1ed5e" style="font-size:6.75px; font-family:Arial;" text-anchor="middle"><textPath startOffset="22.145653131862474" xlink:href="#id29">May</textPath></text><path d="M 118.36410011445183 110.18625677009912 l 16.861343979635297 9.35270327405623 a40.28154504525313,40.28154504525313 0 0,0 -0.3406027812107319,0.6018124784712094 l -16.698307833403188 -9.640772522626563" fill="#ffca12" stroke="none" /><path d="M 118.00360718960297 110.81064883170644 l 21.70464839768614 13.033017737609239 a46.31701628186103,46.31701628186103 0 0,0 -0.41515934548032696,0.67813159040604 l -21.477721087750407 -13.403686444139835" fill="#e4ff1b" stroke="none" /><path d="M 116.57777611688842 112.89097897827486 l 4.6688293346276835 3.6305099297682566 a26.914268315356168,26.914268315356168 0 0,0 -0.2867440627078742,0.3622917560419121 l -4.605818841278247 -3.7101216297248514" fill="#ff0601" stroke="none" /><path d="M 116.1254893667686 113.45245675266167 l 4.798444868322423 4.003033371760186 a27.248947857820188,27.248947857820188 0 0,0 -0.30272988923526745,0.3566150483156658 l -4.729020415580041 -4.084815202525409" fill="#ff0b01" stroke="none" /><path d="M 110.96478420261333 117.91015095944535 l 3.2891601682215192 5.372595944806805 a27.299473136570196,27.299473136570196 0 0,0 -0.401779662369241,0.24125714318538524 l -3.1964477492948413 -5.428267088528114" fill="#ff0c01" stroke="none" /><line stroke="#e1ed5e" stroke-width="0.3" x1="143.1302829299769" x2="145.66735839644613" y1="173.24464959558577" y2="177.55315839532614" /><path d="M 143.63769802327073 174.10635135553383 a86.0,86.0 0 0,1 -40.68552437913181,11.842963189579606" fill="none" id="id30" stroke="none" /><text fill="#e1ed5e" style="font-size:6.75px; font-family:Arial;" text-anchor="middle"><textPath startOffset="21.407464694133747" xlink:href="#id30">June</textPath></text><path d="M 110.65571695917076 118.09573695890943 l 2.906963847985721 4.936660136879466 a26.728966060342017,26.728966060342017 0 0,0 -0.39738021573059745,0.22942757452269288 l -2.821791164394725 -4.9858346086783305" fill="#ff0300" stroke="none" /><path d="M 110.34350942703117 118.27599006163325 l 2.7860468945098815 4.922677908741601 a26.65639594544271,26.65639594544271 0 0,0 -0.40017065450538736,0.2219679163828255 l -2.7011320518483997 -4.969778740557571" fill="#ff0200" stroke="none" /><path d="M 109.3889696526874 118.78422872680471 l 2.4787041872445585 4.959068792597854 a26.544036231625984,26.544036231625984 0 0,0 -0.4093340036584932,0.20022577317787144 l -2.393209934323996 -5.000888315872949" fill="#ff0000" stroke="none" /><path d="M 109.06512990194946 118.94263497670748 l 2.6117546943510237 5.457562810341456 a27.05031027405097,27.05031027405097 0 0,0 -0.42058245703596153,0.19685382634603726 l -2.517683523443556 -5.501592868258027" fill="#ff0801" stroke="none" /><path d="M 108.73861861582097 119.09545874513695 l 17.434746955720534 38.09806856911174 a62.89789052096473,62.89789052096473 0 0,0 -0.9856596551954095,0.44087302668423295 l -16.778173897669497 -38.39174534670582" fill="#31ff3d" stroke="none" /><path d="M 108.4095320186766 119.2426549942271 l 18.2645687723247 41.792907705640346 a66.60966571825703,66.60966571825703 0 0,0 -1.0516870860379335,0.4489026798498248 l -17.544446611116335 -42.100285035149575" fill="#36ff6c" stroke="none" /><path d="M 108.07796709384702 119.3841803445677 l 2.545699257883412 6.108751489645359 a27.617962637687867,27.617962637687867 0 0,0 -0.43918549589833084,0.1786129177864296 l -2.4404593007946405 -6.15155166401108" fill="#ff1101" stroke="none" /><path d="M 107.407793817531 119.65005319985036 l 1.953426520404688 5.181695926405297 a26.53767531048414,26.53767531048414 0 0,0 -0.42764939118801265,0.15703878000552698 l -1.8641879775625483 -5.214465555419546" fill="#ff0000" stroke="none" /><path d="M 106.38641147887787 120.00534299687104 l 4.380978301782902 13.723352132709087 a35.405671266519434,35.405671266519434 0 0,0 -0.580584502385426,0.17986656293850195 l -4.1447531665258515 -13.796535283454233" fill="#ff860c" stroke="none" /><path d="M 106.0420521117495 120.11202640906438 l 18.126156335248506 60.33607922719317 a84.0,84.0 0 0,0 -1.3845599504735728,0.4030252227899269 l -17.08773637239333 -60.63834814428561" fill="#4dd2ff" stroke="none" /><line stroke="#e1ed5e" stroke-width="0.3" x1="101.45913802915013" x2="101.54496967792366" y1="184.9874750549273" y2="189.98673829345242" /><path d="M 101.47630435890484 185.9873277026323 a86.0,86.0 0 0,1 -42.54439059252881,-10.42667462771756" fill="none" id="id31" stroke="none" /><text fill="#e1ed5e" style="font-size:6.75px; font-family:Arial;" text-anchor="middle"><textPath startOffset="22.145653131862474" xlink:href="#id31">July</textPath></text><line stroke="#e1ed5e" stroke-width="0.3" x1="58.13341422392154" x2="55.67067388415222" y1="173.97424548756322" y2="178.32567169271397" /><path d="M 57.64086615596768 174.84453072859336 a86.0,86.0 0 0,1 -31.369924170532247,-30.572349798747897" fill="none" id="id32" stroke="none" /><text fill="#e1ed5e" style="font-size:6.75px; font-family:Arial;" text-anchor="middle"><textPath startOffset="22.145653131862474" xlink:href="#id32">August</textPath></text><line stroke="#e1ed5e" stroke-width="0.3" x1="26.387840678322732" x2="22.057713659400548" y1="142.50000000000003" y2="145.00000000000006" /><path d="M 25.521815274538298 143.00000000000003 a86.0,86.0 0 0,1 -11.493303480769221,-40.785679425670985" fill="none" id="id33" stroke="none" /><text fill="#e1ed5e" style="font-size:6.75px; font-family:Arial;" text-anchor="middle"><textPath startOffset="21.40746469413373" xlink:href="#id33">September</textPath></text><line stroke="#e1ed5e" stroke-width="0.3" x1="15.003131293944662" x2="10.003315487706104" y1="100.72959589197737" y2="100.7725132973878" /><path d="M 14.003168132696942 100.73817937305945 a86.0,86.0 0 0,1 10.791469493833604,-42.45332614584628" fill="none" id="id34" stroke="none" /><text fill="#e1ed5e" style="font-size:6.75px; font-family:Arial;" text-anchor="middle"><textPath startOffset="22.145653131862435" xlink:href="#id34">October</textPath></text><line stroke="#e1ed5e" stroke-width="0.3" x1="26.387840678322718" x2="22.05771365940052" y1="57.49999999999999" y2="54.99999999999999" /><path d="M 25.521815274538284 56.99999999999999 a86.0,86.0 0 0,1 29.574782752854787,-30.34633250058573" fill="none" id="id35" stroke="none" /><text fill="#e1ed5e" style="font-size:6.75px; font-family:Arial;" text-anchor="middle"><textPath startOffset="21.40746469413373" xlink:href="#id35">November</textPath></text><line stroke="#e1ed5e" stroke-width="0.3" x1="56.869717070023135" x2="54.33264160355391" y1="26.7553504044142" y2="22.446841604673864" /><path d="M 56.362301976729285 25.89364864446614 a86.0,86.0 0 0,1 42.16139366436587,-11.88097634709845" fill="none" id="id36" stroke="none" /><text fill="#e1ed5e" style="font-size:6.75px; font-family:Arial;" text-anchor="middle"><textPath startOffset="22.145653131862474" xlink:href="#id36">December</textPath></text></svg>